<svg height="352.30926942728803" width="302.95504885993483" style="width: 302.955px; height: 352.309px; position: absolute; top: 50%; left: 50%; transform: translate(-50%, -50%) scale(1); z-index: 0; cursor: pointer;"><defs id="SvgjsDefs1001"></defs><g id="SvgjsG1007" featurekey="7KWit6-0" transform="matrix(2.674776359679809,0,0,2.674776359679809,46.62611820160095,0.6261182016009545)" fill="#132a3a"><path xmlns="http://www.w3.org/2000/svg" d="M59.06,11.25c-6.32,0-11.47,5.15-11.47,11.47c0,6.34,5.15,11.47,11.47,11.47s11.47-5.14,11.47-11.47  C70.53,16.4,65.38,11.25,59.06,11.25z M59.06,31.84c-5.02,0-9.12-4.09-9.12-9.12s4.1-9.12,9.12-9.12c5.03,0,9.12,4.09,9.12,9.12  S64.09,31.84,59.06,31.84z M59.06,36.83c-3.75,0-7.18,1.47-9.71,3.86c0.67-1.45,1.04-3.06,1.04-4.77c0-6.32-5.15-11.47-11.47-11.47  c-5.48,0-10.07,3.86-11.19,9c-2.38-1.82-5.34-2.89-8.56-2.89C11.35,30.56,5,36.91,5,44.73c0,6.16,5.49,30.8,14.17,30.8  c2.4,0,4.56-1.88,6.42-4.74C27.43,80.33,32.22,95,38.91,95c5.8,0,10.18-11.01,12.45-20.16c2.12,4.06,4.72,6.96,7.7,6.96  c8.67,0,14.17-24.65,14.17-30.82C73.23,43.18,66.87,36.83,59.06,36.83z M29.81,35.39c0.28-4.78,4.26-8.59,9.1-8.59  c5.03,0,9.13,4.1,9.13,9.12c0,5.03-4.1,9.12-9.13,9.12c-2.15,0-4.13-0.74-5.68-2c-2.09-1.67-3.43-4.23-3.43-7.12  C29.79,35.75,29.79,35.57,29.81,35.39z M46.43,44.58c-0.99,1.92-1.54,4.1-1.54,6.39v0.38c-1.81-0.86-3.83-1.33-5.98-1.33  c-2.32,0-4.53,0.56-6.47,1.57c0.44-2.26,0.73-4.23,0.84-5.68c1.66,0.95,3.58,1.48,5.62,1.48C41.78,47.39,44.42,46.33,46.43,44.58z   M24.98,67.1c-1.79,3.58-3.82,6.1-5.82,6.1c-5.8,0-11.81-21.14-11.81-28.47c0-6.51,5.3-11.83,11.81-11.83c3.23,0,6.14,1.3,8.29,3.4  c0.1,3.09,1.42,5.88,3.51,7.87c0.01,0.18,0.01,0.36,0.01,0.55c0,2.07-0.47,5.24-1.3,8.73c-3,2.59-4.93,6.44-4.93,10.73  C24.75,64.92,24.82,65.91,24.98,67.1z M50.56,66.76c-0.16,1.38-0.44,2.96-0.8,4.66c-1.92,9.07-6.44,21.23-10.85,21.23  c-5.06,0-10.29-16.11-11.53-25.06c-0.18-1.32-0.28-2.47-0.28-3.39c0-3.83,1.82-7.24,4.65-9.4c1.98-1.52,4.47-2.43,7.16-2.43  c2.29,0,4.43,0.65,6.25,1.79c1.01,0.64,1.92,1.42,2.71,2.32c1.78,2.07,2.86,4.77,2.86,7.71C50.73,64.92,50.67,65.78,50.56,66.76z   M59.06,79.44c-2.4,0-4.84-3.61-6.87-8.36c0.58-2.95,0.89-5.43,0.89-6.88c0-4.66-2.25-8.81-5.73-11.38c-0.07-0.68-0.1-1.29-0.1-1.84  c0-6.51,5.3-11.81,11.81-11.81s11.81,5.3,11.81,11.81C70.87,58.3,64.86,79.44,59.06,79.44z M19.17,5C12.85,5,7.69,10.14,7.69,16.47  c0,6.32,5.15,11.46,11.47,11.46s11.47-5.14,11.47-11.46C30.64,10.14,25.49,5,19.17,5z M19.17,25.59c-5.03,0-9.12-4.1-9.12-9.12  c0-5.03,4.09-9.13,9.12-9.13s9.12,4.1,9.12,9.13C28.28,21.49,24.2,25.59,19.17,25.59z"></path></g><g id="SvgjsG1008" featurekey="ewgXDI-0" transform="matrix(4.275402854225741,0,0,4.275402854225741,-2.565242324136729,265.9461387034093)" fill="#ffffff"><path d="M6.08 17.36 c0.56 0 0.96 -0.08 1.4 -0.2 l0 2.62 c-0.44 0.2 -1.16 0.34 -2.22 0.34 c-1.74 0 -3.2 -0.58 -3.2 -3.78 l0 -4.14 l-1.46 0 l0 -2.6 l1.46 0 l0 -2.44 l3.16 0 l0 2.44 l2.22 0 l0 2.6 l-2.22 0 l0 4.14 c0 0.46 0.12 1.02 0.86 1.02 z M14.32 9.42 c2.36 0 5.66 1.78 5 6.48 l-7.26 0 c0.36 1.08 1.3 1.64 2.56 1.64 c1.28 0 1.68 -0.28 2.4 -0.58 l1.74 1.68 c-0.92 0.9 -2.16 1.56 -4.26 1.56 c-2.58 0 -5.66 -1.78 -5.66 -5.36 c0 -3.64 3.12 -5.42 5.48 -5.42 z M14.32 12.120000000000001 c-0.9 0 -1.82 0.52 -2.22 1.56 l4.42 0 c-0.32 -1.04 -1.3 -1.56 -2.2 -1.56 z M28.6 9.6 l3.16 0 l0 10.4 l-3.16 0 l0 -1.04 c-0.14 0.36 -1.08 1.24 -2.68 1.24 c-2.38 0 -5.12 -1.7 -5.12 -5.42 c0 -3.58 2.74 -5.36 5.12 -5.36 c1.6 0 2.54 0.92 2.68 1.14 l0 -0.96 z M26.380000000000003 17.42 c1.3 0 2.36 -0.9 2.36 -2.64 c0 -1.68 -1.06 -2.58 -2.36 -2.58 c-1.36 0 -2.52 0.92 -2.52 2.58 c0 1.72 1.16 2.64 2.52 2.64 z M47.7 9.44 c2.22 0 4.18 1.44 4.18 4.96 l0 5.6 l-3.16 0 l0 -5.5 c0 -1.32 -0.56 -2.32 -2.02 -2.32 c-1.22 0 -2.04 1.08 -2.28 2.04 l0 5.78 l-3.16 0 l0 -5.5 c0 -1.32 -0.82 -2.32 -2.02 -2.32 c-1.3 0 -2.08 0.88 -2.28 2.04 l0 5.78 l-3.16 0 l0 -10.4 l3.16 0 l0 1.9 c0.04 -0.48 1.06 -2.06 3.1 -2.06 c1.5 0 2.94 0.8 3.8 2.26 c0.24 -0.56 1.44 -2.26 3.84 -2.26 z M62.96 5.859999999999999 l0 2.66 l-3.16 0 l0 -2.66 l3.16 0 z M62.96 9.6 l0 10.4 l-3.16 0 l0 -10.4 l3.16 0 z M70.06 17.36 c0.56 0 0.96 -0.08 1.4 -0.2 l0 2.62 c-0.44 0.2 -1.16 0.34 -2.22 0.34 c-1.74 0 -3.2 -0.58 -3.2 -3.78 l0 -4.14 l-1.46 0 l0 -2.6 l1.46 0 l0 -2.44 l3.16 0 l0 2.44 l2.22 0 l0 2.6 l-2.22 0 l0 4.14 c0 0.46 0.12 1.02 0.86 1.02 z"></path></g></svg>